<?xml version="1.0" ?>
<!-- Uploaded to: SVG Repo, www.svgrepo.com, Generator: SVG Repo Mixer Tools -->
<svg width="800px" height="800px" viewBox="0 0 120 120" id="Layer_1" version="1.1" xml:space="preserve" xmlns="http://www.w3.org/2000/svg" xmlns:xlink="http://www.w3.org/1999/xlink">
<style type="text/css">
	.st0{fill:#F9F9F9;}
	.st1{fill:#21F48A;}
	.st2{fill:#FFD674;}
</style>
<g>
<path class="st0" d="M29.6,102.9h60.9c5.2,0,9.4-4.2,9.4-9.4V29.9c0-7.1-5.7-12.8-12.8-12.8H33c-7.1,0-12.8,5.7-12.8,12.8v63.5   C20.2,98.7,24.4,102.9,29.6,102.9z"/>
<path class="st1" d="M20.2,28.9v13.5h79.7V28.9c0-6.5-4.9-11.7-10.9-11.7H31.1C25.1,17.1,20.2,22.4,20.2,28.9z"/>
<g>
<path class="st2" d="M71.8,86.8c-0.3,0-0.6,0-1,0C59.3,86.8,50,77.5,50,66c0-5,1.7-9.5,4.6-13.1c0.5-0.7-0.2-1.6-1-1.3    C45,54.5,38.8,63,39.5,72.8c0.7,10.1,8.8,18.4,18.9,19.3c5.2,0.5,10.1-1,14-3.7C73.1,87.9,72.7,86.8,71.8,86.8z"/>
<path class="st2" d="M80.3,66c0.4-0.4,0.2-1.2-0.4-1.3l-7.2-1.1c-0.2,0-0.5-0.2-0.6-0.4l-3.2-6.5c-0.3-0.6-1.1-0.6-1.3,0l-3.2,6.5    c-0.1,0.2-0.3,0.4-0.6,0.4l-7.2,1.1c-0.6,0.1-0.9,0.8-0.4,1.3l5.2,5.1c0.2,0.2,0.3,0.4,0.2,0.7l-1.2,7.2c-0.1,0.6,0.5,1.1,1.1,0.8    l6.5-3.4c0.2-0.1,0.5-0.1,0.7,0l6.5,3.4c0.6,0.3,1.2-0.2,1.1-0.8l-1.2-7.2c0-0.2,0-0.5,0.2-0.7L80.3,66z"/>
</g>
</g>
</svg>